<svg width="20" height="20" viewBox="0 0 20 20" fill="none" xmlns="http://www.w3.org/2000/svg">
<g clip-path="url(#clip0_246_34)">
<path d="M17.7083 20H2.29172C1.02753 20 0 18.9725 0 17.7083V3.95831C0 2.69412 1.02753 1.66675 2.29172 1.66675H17.7083C18.9725 1.66675 20 2.69412 20 3.95831V17.7083C20 18.9725 18.9725 20 17.7083 20ZM2.29172 2.91675C1.71753 2.91675 1.25 3.38412 1.25 3.95831V17.7083C1.25 18.2825 1.71753 18.75 2.29172 18.75H17.7083C18.2825 18.75 18.75 18.2825 18.75 17.7083V3.95831C18.75 3.38412 18.2825 2.91675 17.7083 2.91675H2.29172Z" fill="#7367F0"/>
<path d="M19.375 7.91675H0.625C0.279999 7.91675 0 7.63675 0 7.29175C0 6.94675 0.279999 6.66675 0.625 6.66675H19.375C19.72 6.66675 20 6.94675 20 7.29175C20 7.63675 19.72 7.91675 19.375 7.91675Z" fill="#7367F0"/>
<path d="M4.79172 5C4.44672 5 4.16672 4.72 4.16672 4.375V0.625C4.16672 0.279999 4.44672 0 4.79172 0C5.13672 0 5.41672 0.279999 5.41672 0.625V4.375C5.41672 4.72 5.13672 5 4.79172 5Z" fill="#7367F0"/>
<path d="M15.2083 5C14.8633 5 14.5833 4.72 14.5833 4.375V0.625C14.5833 0.279999 14.8633 0 15.2083 0C15.5533 0 15.8333 0.279999 15.8333 0.625V4.375C15.8333 4.72 15.5533 5 15.2083 5Z" fill="#7367F0"/>
</g>
<defs>
<clipPath id="clip0_246_34">
<rect width="20" height="20" fill="white"/>
</clipPath>
</defs>
</svg>
