<svg width="40" height="40" viewBox="0 0 40 40" fill="none" xmlns="http://www.w3.org/2000/svg">
<g opacity="0.5" clip-path="url(#clip0_246_148)">
<path d="M35.4166 40.0001H4.58344C2.05505 40.0001 0 37.945 0 35.4166V7.91663C0 5.38824 2.05505 3.3335 4.58344 3.3335H35.4166C37.9449 3.3335 40 5.38824 40 7.91663V35.4166C40 37.945 37.9449 40.0001 35.4166 40.0001ZM4.58344 5.8335C3.43506 5.8335 2.5 6.76825 2.5 7.91663V35.4166C2.5 36.565 3.43506 37.5001 4.58344 37.5001H35.4166C36.5649 37.5001 37.5 36.565 37.5 35.4166V7.91663C37.5 6.76825 36.5649 5.8335 35.4166 5.8335H4.58344Z" fill="#7367F0"/>
<path d="M38.75 15.8335H1.25C0.559998 15.8335 0 15.2735 0 14.5835C0 13.8935 0.559998 13.3335 1.25 13.3335H38.75C39.44 13.3335 40 13.8935 40 14.5835C40 15.2735 39.44 15.8335 38.75 15.8335Z" fill="#7367F0"/>
<path d="M9.58344 10C8.89343 10 8.33344 9.44 8.33344 8.75V1.25C8.33344 0.559998 8.89343 0 9.58344 0C10.2734 0 10.8334 0.559998 10.8334 1.25V8.75C10.8334 9.44 10.2734 10 9.58344 10Z" fill="#7367F0"/>
<path d="M30.4166 10C29.7266 10 29.1666 9.44 29.1666 8.75V1.25C29.1666 0.559998 29.7266 0 30.4166 0C31.1066 0 31.6666 0.559998 31.6666 1.25V8.75C31.6666 9.44 31.1066 10 30.4166 10Z" fill="#7367F0"/>
</g>
<defs>
<clipPath id="clip0_246_148">
<rect width="40" height="40" fill="white"/>
</clipPath>
</defs>
</svg>
