<svg width="20" height="20" viewBox="0 0 20 20" fill="none" xmlns="http://www.w3.org/2000/svg">
<g clip-path="url(#clip0_246_9)">
<path d="M18.5713 7.8213L10.238 0.182392C9.96645 -0.0660068 9.54887 -0.0599521 9.28496 0.196064L1.41457 7.83493C1.27985 7.96571 1.20367 8.14559 1.20367 8.33329V19.3055C1.20367 19.6891 1.51453 20 1.89813 20H7.68516C8.06871 20 8.37961 19.6891 8.37961 19.3055V14.2129H11.6204V19.3055C11.6204 19.6891 11.9312 20 12.3148 20H18.1018C18.4854 20 18.7963 19.6893 18.7963 19.3055V8.33333C18.7963 8.13864 18.7148 7.95302 18.5713 7.8213ZM17.4074 18.6111H13.0093V13.5185C13.0093 13.135 12.6984 12.8241 12.3148 12.8241H7.6852C7.30164 12.8241 6.99075 13.135 6.99075 13.5185V18.6111H2.59258V8.62708L9.78219 1.64907L17.4074 8.63888V18.6111H17.4074Z" fill="white"/>
</g>
<defs>
<clipPath id="clip0_246_9">
<rect width="20" height="20" fill="white"/>
</clipPath>
</defs>
</svg>
