<svg width="219" height="65" viewBox="0 0 219 65" fill="none" xmlns="http://www.w3.org/2000/svg">
<path d="M80.87 20.281H73.478C73.236 21.095 72.972 21.942 72.686 22.822C72.422 23.702 72.202 24.428 72.026 25C71.806 25.088 71.564 25.165 71.3 25.231C71.058 25.297 70.75 25.33 70.376 25.33C69.628 25.33 69.045 25.187 68.627 24.901C68.209 24.593 68 24.164 68 23.614C68 23.35 68.033 23.097 68.099 22.855C68.187 22.591 68.286 22.294 68.396 21.964C68.572 21.348 68.803 20.611 69.089 19.753C69.397 18.873 69.716 17.927 70.046 16.915C70.398 15.881 70.772 14.825 71.168 13.747C71.564 12.647 71.938 11.591 72.29 10.579C72.664 9.54501 73.016 8.58801 73.346 7.70801C73.698 6.80601 73.995 6.03601 74.237 5.39801C74.523 5.24401 74.941 5.09001 75.491 4.93601C76.063 4.78201 76.635 4.70501 77.207 4.70501C77.977 4.70501 78.681 4.82601 79.319 5.06801C79.957 5.28801 80.364 5.65101 80.54 6.15701C80.98 7.36701 81.464 8.76401 81.992 10.348C82.52 11.91 83.048 13.527 83.576 15.199C84.126 16.871 84.654 18.51 85.16 20.116C85.666 21.722 86.117 23.163 86.513 24.439C86.293 24.681 85.985 24.879 85.589 25.033C85.215 25.209 84.764 25.297 84.236 25.297C83.466 25.297 82.916 25.165 82.586 24.901C82.278 24.615 82.036 24.175 81.86 23.581L80.87 20.281ZM77.174 8.46701C76.976 9.01701 76.756 9.63301 76.514 10.315C76.294 10.997 76.052 11.712 75.788 12.46C75.546 13.186 75.293 13.934 75.029 14.704C74.765 15.452 74.512 16.189 74.27 16.915H80.012L77.339 8.46701H77.174Z" fill="#7367F0"/>
<path d="M99.2665 23.647C98.8265 23.867 98.3095 24.054 97.7155 24.208C97.1435 24.362 96.4725 24.439 95.7025 24.439C94.7125 24.439 93.7775 24.307 92.8975 24.043C92.0175 23.757 91.2475 23.306 90.5875 22.69C89.9275 22.074 89.3995 21.282 89.0035 20.314C88.6295 19.324 88.4425 18.125 88.4425 16.717C88.4425 15.441 88.6295 14.319 89.0035 13.351C89.3995 12.361 89.9495 11.536 90.6535 10.876C91.3795 10.216 92.2375 9.72101 93.2275 9.39101C94.2175 9.06101 95.3175 8.89601 96.5275 8.89601C97.6715 8.89601 98.7165 9.03901 99.6625 9.32501C100.63 9.61101 101.4 9.94101 101.972 10.315C102.368 10.579 102.676 10.876 102.896 11.206C103.138 11.536 103.259 11.954 103.259 12.46V25.198C103.259 26.32 103.05 27.288 102.632 28.102C102.236 28.916 101.686 29.576 100.982 30.082C100.278 30.61 99.4535 30.995 98.5075 31.237C97.5615 31.479 96.5385 31.6 95.4385 31.6C94.2945 31.6 93.2935 31.49 92.4355 31.27C91.5995 31.072 90.9725 30.841 90.5545 30.577C89.8285 30.115 89.4655 29.499 89.4655 28.729C89.4655 28.311 89.5535 27.948 89.7295 27.64C89.9055 27.332 90.1145 27.101 90.3565 26.947C90.9285 27.299 91.6215 27.607 92.4355 27.871C93.2495 28.135 94.1185 28.267 95.0425 28.267C96.3625 28.267 97.3965 28.014 98.1445 27.508C98.8925 27.002 99.2665 26.188 99.2665 25.066V23.647ZM96.3955 21.205C97.0335 21.205 97.5725 21.117 98.0125 20.941C98.4745 20.765 98.8705 20.556 99.2005 20.314V12.856C98.8925 12.68 98.5295 12.526 98.1115 12.394C97.7155 12.262 97.2315 12.196 96.6595 12.196C95.4495 12.196 94.4705 12.57 93.7225 13.318C92.9965 14.044 92.6335 15.177 92.6335 16.717C92.6335 17.553 92.7215 18.257 92.8975 18.829C93.0955 19.401 93.3595 19.863 93.6895 20.215C94.0415 20.567 94.4485 20.82 94.9105 20.974C95.3725 21.128 95.8675 21.205 96.3955 21.205Z" fill="#7367F0"/>
<path d="M110.776 19.06C111.084 20.182 111.656 20.996 112.492 21.502C113.328 22.008 114.362 22.261 115.594 22.261C116.518 22.261 117.365 22.129 118.135 21.865C118.927 21.579 119.565 21.282 120.049 20.974C120.357 21.15 120.61 21.392 120.808 21.7C121.006 22.008 121.105 22.338 121.105 22.69C121.105 23.13 120.951 23.526 120.643 23.878C120.357 24.208 119.95 24.494 119.422 24.736C118.916 24.978 118.311 25.165 117.607 25.297C116.903 25.429 116.144 25.495 115.33 25.495C114.032 25.495 112.844 25.319 111.766 24.967C110.71 24.615 109.797 24.087 109.027 23.383C108.279 22.657 107.685 21.766 107.245 20.71C106.827 19.654 106.618 18.422 106.618 17.014C106.618 15.65 106.827 14.462 107.245 13.45C107.663 12.438 108.224 11.591 108.928 10.909C109.654 10.227 110.49 9.72101 111.436 9.39101C112.382 9.06101 113.383 8.89601 114.439 8.89601C115.517 8.89601 116.507 9.07201 117.409 9.42401C118.311 9.75401 119.081 10.227 119.719 10.843C120.357 11.437 120.852 12.163 121.204 13.021C121.578 13.857 121.765 14.77 121.765 15.76C121.765 16.376 121.6 16.838 121.27 17.146C120.962 17.454 120.522 17.652 119.95 17.74L110.776 19.06ZM114.439 12.031C113.361 12.031 112.459 12.394 111.733 13.12C111.007 13.824 110.6 14.836 110.512 16.156L117.838 15.067C117.75 14.253 117.431 13.549 116.881 12.955C116.331 12.339 115.517 12.031 114.439 12.031Z" fill="#7367F0"/>
<path d="M135.367 14.935C135.367 13.989 135.092 13.296 134.542 12.856C134.014 12.416 133.288 12.196 132.364 12.196C131.726 12.196 131.132 12.273 130.582 12.427C130.054 12.581 129.592 12.779 129.196 13.021V24.967C128.998 25.011 128.734 25.066 128.404 25.132C128.074 25.198 127.7 25.231 127.282 25.231C126.512 25.231 125.94 25.088 125.566 24.802C125.192 24.516 125.005 24.01 125.005 23.284V12.691C125.005 12.163 125.115 11.734 125.335 11.404C125.555 11.074 125.896 10.755 126.358 10.447C126.996 10.007 127.843 9.64401 128.899 9.35801C129.955 9.05001 131.121 8.89601 132.397 8.89601C134.663 8.89601 136.412 9.40201 137.644 10.414C138.898 11.404 139.525 12.867 139.525 14.803V24.967C139.349 25.011 139.085 25.066 138.733 25.132C138.403 25.198 138.04 25.231 137.644 25.231C136.852 25.231 136.269 25.088 135.895 24.802C135.543 24.516 135.367 24.01 135.367 23.284V14.935Z" fill="#7367F0"/>
<path d="M158.216 21.964C158.216 22.47 158.106 22.877 157.886 23.185C157.666 23.493 157.336 23.79 156.896 24.076C156.346 24.428 155.62 24.747 154.718 25.033C153.816 25.341 152.771 25.495 151.583 25.495C148.943 25.495 146.842 24.824 145.28 23.482C143.74 22.118 142.97 20.039 142.97 17.245C142.97 15.793 143.179 14.55 143.597 13.516C144.015 12.46 144.576 11.591 145.28 10.909C146.006 10.227 146.853 9.72101 147.821 9.39101C148.789 9.06101 149.834 8.89601 150.956 8.89601C151.55 8.89601 152.111 8.96201 152.639 9.09401C153.167 9.20401 153.64 9.34701 154.058 9.52301V3.55001C154.234 3.48401 154.487 3.42901 154.817 3.38501C155.169 3.31901 155.543 3.28601 155.939 3.28601C156.731 3.28601 157.303 3.42901 157.655 3.71501C158.029 4.00101 158.216 4.50701 158.216 5.23301V21.964ZM154.058 12.889C153.728 12.691 153.343 12.526 152.903 12.394C152.463 12.262 151.99 12.196 151.484 12.196C150.252 12.196 149.229 12.592 148.415 13.384C147.601 14.176 147.194 15.474 147.194 17.278C147.194 18.972 147.579 20.215 148.349 21.007C149.141 21.777 150.208 22.162 151.55 22.162C152.122 22.162 152.606 22.096 153.002 21.964C153.42 21.832 153.772 21.678 154.058 21.502V12.889Z" fill="#7367F0"/>
<path d="M168.623 22.327C169.261 22.327 169.844 22.272 170.372 22.162C170.9 22.03 171.285 21.876 171.527 21.7V18.037L168.326 18.334C167.446 18.422 166.775 18.62 166.313 18.928C165.851 19.214 165.62 19.676 165.62 20.314C165.62 20.952 165.851 21.447 166.313 21.799C166.797 22.151 167.567 22.327 168.623 22.327ZM168.491 8.89601C170.647 8.89601 172.363 9.35801 173.639 10.282C174.937 11.206 175.586 12.636 175.586 14.572V22.195C175.586 22.723 175.454 23.141 175.19 23.449C174.926 23.757 174.596 24.032 174.2 24.274C173.584 24.648 172.803 24.945 171.857 25.165C170.911 25.385 169.833 25.495 168.623 25.495C166.423 25.495 164.685 25.077 163.409 24.241C162.155 23.383 161.528 22.107 161.528 20.413C161.528 18.939 161.99 17.817 162.914 17.047C163.86 16.255 165.224 15.771 167.006 15.595L171.527 15.133V14.539C171.527 13.703 171.219 13.087 170.603 12.691C170.009 12.295 169.162 12.097 168.062 12.097C167.204 12.097 166.368 12.207 165.554 12.427C164.74 12.625 164.014 12.878 163.376 13.186C163.134 13.01 162.925 12.779 162.749 12.493C162.595 12.185 162.518 11.855 162.518 11.503C162.518 11.063 162.617 10.711 162.815 10.447C163.035 10.161 163.376 9.90801 163.838 9.68801C164.476 9.42401 165.202 9.22601 166.016 9.09401C166.83 8.96201 167.655 8.89601 168.491 8.89601Z" fill="#7367F0"/>
<path d="M95.968 50.0159C95.968 52.4079 95.6153 54.5239 94.91 56.3639C94.2047 58.2039 93.2233 59.7526 91.966 61.0099C90.7393 62.2366 89.2673 63.1719 87.55 63.8159C85.8327 64.4293 83.9773 64.7359 81.984 64.7359C79.9907 64.7359 78.1353 64.4293 76.418 63.8159C74.7007 63.1719 73.2133 62.2366 71.956 61.0099C70.7293 59.7526 69.7633 58.2039 69.058 56.3639C68.3527 54.5239 68 52.4079 68 50.0159C68 47.6239 68.3527 45.5233 69.058 43.7139C69.794 41.8739 70.7907 40.3406 72.048 39.1139C73.3053 37.8566 74.7773 36.9213 76.464 36.3079C78.1813 35.6639 80.0213 35.3419 81.984 35.3419C83.9467 35.3419 85.7713 35.6639 87.458 36.3079C89.1753 36.9213 90.6627 37.8566 91.92 39.1139C93.1773 40.3406 94.1587 41.8739 94.864 43.7139C95.6 45.5233 95.968 47.6239 95.968 50.0159ZM89.85 50.0159C89.85 46.8266 89.1293 44.4039 87.688 42.7479C86.2773 41.0613 84.376 40.2179 81.984 40.2179C79.6227 40.2179 77.7213 41.0459 76.28 42.7019C74.8693 44.3579 74.164 46.7959 74.164 50.0159C74.164 53.2359 74.8693 55.6739 76.28 57.3299C77.6907 58.9859 79.592 59.8139 81.984 59.8139C84.376 59.8139 86.2773 58.9859 87.688 57.3299C89.1293 55.6739 89.85 53.2359 89.85 50.0159Z" fill="#7367F0"/>
<path d="M121.142 59.7679C121.142 60.4733 120.989 61.0406 120.682 61.4699C120.376 61.8993 119.916 62.3133 119.302 62.7119C118.536 63.2026 117.524 63.6473 116.266 64.0459C115.009 64.4753 113.552 64.6899 111.896 64.6899C108.216 64.6899 105.288 63.7546 103.11 61.8839C100.964 59.9826 99.8902 57.0846 99.8902 53.1899C99.8902 51.1659 100.182 49.4333 100.764 47.9919C101.347 46.5199 102.129 45.3086 103.11 44.3579C104.122 43.4073 105.303 42.7019 106.652 42.2419C108.002 41.7819 109.458 41.5519 111.022 41.5519C111.85 41.5519 112.632 41.6439 113.368 41.8279C114.104 41.9813 114.764 42.1806 115.346 42.4259V34.0999C115.592 34.0079 115.944 33.9313 116.404 33.8699C116.895 33.7779 117.416 33.7319 117.968 33.7319C119.072 33.7319 119.87 33.9313 120.36 34.3299C120.882 34.7286 121.142 35.4339 121.142 36.4459V59.7679ZM115.346 47.1179C114.886 46.8419 114.35 46.6119 113.736 46.4279C113.123 46.2439 112.464 46.1519 111.758 46.1519C110.041 46.1519 108.615 46.7039 107.48 47.8079C106.346 48.9119 105.778 50.7213 105.778 53.2359C105.778 55.5973 106.315 57.3299 107.388 58.4339C108.492 59.5073 109.98 60.0439 111.85 60.0439C112.648 60.0439 113.322 59.9519 113.874 59.7679C114.457 59.5839 114.948 59.3693 115.346 59.1239V47.1179Z" fill="#7367F0"/>
<path d="M148.53 53.0979C148.53 54.8766 148.254 56.4866 147.702 57.9279C147.18 59.3386 146.429 60.5499 145.448 61.5619C144.466 62.5739 143.286 63.3559 141.906 63.9079C140.526 64.4293 138.977 64.6899 137.26 64.6899C135.542 64.6899 133.994 64.4293 132.614 63.9079C131.234 63.3559 130.053 62.5893 129.072 61.6079C128.09 60.5959 127.324 59.3846 126.772 57.9739C126.25 56.5326 125.99 54.9073 125.99 53.0979C125.99 51.3193 126.25 49.7246 126.772 48.3139C127.324 46.8726 128.09 45.6613 129.072 44.6799C130.084 43.6679 131.28 42.9013 132.66 42.3799C134.04 41.8279 135.573 41.5519 137.26 41.5519C138.946 41.5519 140.48 41.8279 141.86 42.3799C143.24 42.9013 144.42 43.6679 145.402 44.6799C146.414 45.6919 147.18 46.9186 147.702 48.3599C148.254 49.7706 148.53 51.3499 148.53 53.0979ZM137.26 46.1519C135.604 46.1519 134.3 46.7653 133.35 47.9919C132.399 49.1879 131.924 50.8899 131.924 53.0979C131.924 55.3366 132.384 57.0539 133.304 58.2499C134.254 59.4459 135.573 60.0439 137.26 60.0439C138.946 60.0439 140.25 59.4459 141.17 58.2499C142.12 57.0233 142.596 55.3059 142.596 53.0979C142.596 50.8899 142.12 49.1879 141.17 47.9919C140.219 46.7653 138.916 46.1519 137.26 46.1519Z" fill="#7367F0"/>
<path d="M167.726 49.9699C167.726 48.6513 167.343 47.6853 166.576 47.0719C165.84 46.4586 164.828 46.1519 163.54 46.1519C162.651 46.1519 161.823 46.2593 161.056 46.4739C160.32 46.6886 159.676 46.9646 159.124 47.3019V63.9539C158.848 64.0153 158.48 64.0919 158.02 64.1839C157.56 64.2759 157.039 64.3219 156.456 64.3219C155.383 64.3219 154.586 64.1226 154.064 63.7239C153.543 63.3253 153.282 62.6199 153.282 61.6079V46.8419C153.282 46.1059 153.436 45.5079 153.742 45.0479C154.049 44.5879 154.524 44.1433 155.168 43.7139C156.058 43.1006 157.238 42.5946 158.71 42.1959C160.182 41.7666 161.808 41.5519 163.586 41.5519C166.745 41.5519 169.183 42.2573 170.9 43.6679C172.648 45.0479 173.522 47.0873 173.522 49.7859V63.9539C173.277 64.0153 172.909 64.0919 172.418 64.1839C171.958 64.2759 171.452 64.3219 170.9 64.3219C169.796 64.3219 168.984 64.1226 168.462 63.7239C167.972 63.3253 167.726 62.6199 167.726 61.6079V49.9699Z" fill="#7367F0"/>
<path d="M185.224 57.2379C185.224 58.2193 185.515 58.9246 186.098 59.3539C186.711 59.7833 187.554 59.9979 188.628 59.9979C189.149 59.9979 189.67 59.9366 190.192 59.8139C190.744 59.6913 191.234 59.5379 191.664 59.3539C191.909 59.5993 192.108 59.9059 192.262 60.2739C192.446 60.6113 192.538 61.0099 192.538 61.4699C192.538 62.3899 192.124 63.1566 191.296 63.7699C190.468 64.3526 189.134 64.6439 187.294 64.6439C184.871 64.6439 182.954 64.1073 181.544 63.0339C180.164 61.9299 179.474 60.1206 179.474 57.6059V36.4919C179.719 36.4306 180.072 36.3539 180.532 36.2619C181.022 36.1699 181.544 36.1239 182.096 36.1239C183.169 36.1239 183.951 36.3233 184.442 36.7219C184.963 37.1206 185.224 37.8259 185.224 38.8379V42.6559H191.986C192.139 42.9013 192.277 43.2233 192.4 43.6219C192.522 44.0206 192.584 44.4499 192.584 44.9099C192.584 45.7073 192.4 46.2899 192.032 46.6579C191.664 47.0259 191.173 47.2099 190.56 47.2099H185.224V57.2379Z" fill="#7367F0"/>
<path d="M218.159 53.0979C218.159 54.8766 217.883 56.4866 217.331 57.9279C216.809 59.3386 216.058 60.5499 215.077 61.5619C214.095 62.5739 212.915 63.3559 211.535 63.9079C210.155 64.4293 208.606 64.6899 206.889 64.6899C205.171 64.6899 203.623 64.4293 202.243 63.9079C200.863 63.3559 199.682 62.5893 198.701 61.6079C197.719 60.5959 196.953 59.3846 196.401 57.9739C195.879 56.5326 195.619 54.9073 195.619 53.0979C195.619 51.3193 195.879 49.7246 196.401 48.3139C196.953 46.8726 197.719 45.6613 198.701 44.6799C199.713 43.6679 200.909 42.9013 202.289 42.3799C203.669 41.8279 205.202 41.5519 206.889 41.5519C208.575 41.5519 210.109 41.8279 211.489 42.3799C212.869 42.9013 214.049 43.6679 215.031 44.6799C216.043 45.6919 216.809 46.9186 217.331 48.3599C217.883 49.7706 218.159 51.3499 218.159 53.0979ZM206.889 46.1519C205.233 46.1519 203.929 46.7653 202.979 47.9919C202.028 49.1879 201.553 50.8899 201.553 53.0979C201.553 55.3366 202.013 57.0539 202.933 58.2499C203.883 59.4459 205.202 60.0439 206.889 60.0439C208.575 60.0439 209.879 59.4459 210.799 58.2499C211.749 57.0233 212.225 55.3059 212.225 53.0979C212.225 50.8899 211.749 49.1879 210.799 47.9919C209.848 46.7653 208.545 46.1519 206.889 46.1519Z" fill="#7367F0"/>
<path d="M53.584 46.672H63.628C63.8346 47.0027 64 47.4367 64.124 47.974C64.2893 48.5113 64.372 49.09 64.372 49.71C64.372 50.826 64.1033 51.6527 63.566 52.19C63.0286 52.686 62.3053 52.934 61.396 52.934H53.584V64.218C53.2533 64.342 52.778 64.466 52.158 64.59C51.538 64.6727 50.918 64.714 50.298 64.714C49.0166 64.714 48.0453 64.4867 47.384 64.032C46.764 63.536 46.454 62.606 46.454 61.242V52.934H36.224C36.0173 52.562 35.8313 52.128 35.666 51.632C35.542 51.0947 35.48 50.516 35.48 49.896C35.48 48.78 35.7486 47.974 36.286 47.478C36.8233 46.9407 37.5673 46.672 38.518 46.672H46.454V35.574C46.826 35.45 47.322 35.3467 47.942 35.264C48.562 35.14 49.182 35.078 49.802 35.078C51.042 35.078 51.972 35.326 52.592 35.822C53.2533 36.2767 53.584 37.186 53.584 38.55V46.672Z" fill="#7367F0"/>
<path d="M45.5625 4.14062H42.8203V2.07031C42.8203 0.926879 41.8759 0 40.7109 0C39.5459 0 38.6016 0.926879 38.6016 2.07031V4.14062H29.0039V2.07031C29.0039 0.926879 28.0595 0 26.8945 0C25.7295 0 24.7852 0.926879 24.7852 2.07031V4.14062H15.293V2.07031C15.293 0.926879 14.3486 0 13.1836 0C12.0186 0 11.0742 0.926879 11.0742 2.07031V4.14062H8.4375C3.78506 4.14062 0 7.85559 0 12.4219V44.7188C0 49.285 3.78506 53 8.4375 53H26.0542C27.2192 53 28.1636 52.0731 28.1636 50.9297C28.1636 49.7863 27.2192 48.8594 26.0542 48.8594H8.4375C6.11128 48.8594 4.21875 47.0019 4.21875 44.7188V12.4219C4.21875 10.1387 6.11128 8.28125 8.4375 8.28125H11.0742V10.3516C11.0742 11.495 12.0186 12.4219 13.1836 12.4219C14.3486 12.4219 15.293 11.495 15.293 10.3516V8.28125H24.7852V10.3516C24.7852 11.495 25.7295 12.4219 26.8945 12.4219C28.0595 12.4219 29.0039 11.495 29.0039 10.3516V8.28125H38.6016V10.3516C38.6016 11.495 39.5459 12.4219 40.7109 12.4219C41.8759 12.4219 42.8203 11.495 42.8203 10.3516V8.28125H45.5625C47.8887 8.28125 49.7813 10.1387 49.7813 12.4219V25.7125C49.7813 26.8559 50.7256 27.7828 51.8906 27.7828C53.0556 27.7828 54 26.8559 54 25.7125V12.4219C54 7.85559 50.2149 4.14062 45.5625 4.14062Z" fill="#D5D1FB"/>
<path d="M28.4145 19.6604C27.5156 20.1264 26.4422 20.1263 25.5434 19.6604C21.6595 17.6469 17 20.4836 17 24.8602C17 27.6145 19.2834 39 22.8535 39C24.1058 39 25.2455 37.7225 26.3378 35.0944C26.5739 34.5263 27.384 34.5261 27.6202 35.0944C28.7125 37.7225 29.8521 39 31.1045 39C34.6396 39 36.958 27.7021 36.958 24.8602C36.9579 20.4851 32.3 17.646 28.4145 19.6604ZM31.1044 37.9578C30.3637 37.9578 29.4446 36.7684 28.5827 34.6944C27.9904 33.2694 25.9678 33.2687 25.3753 34.6944C24.5134 36.7683 23.5942 37.9578 22.8535 37.9578C20.5705 37.9578 18.0423 28.0945 18.0423 24.8603C18.0423 21.2591 21.8766 18.9336 25.0637 20.5858C26.263 21.2075 27.695 21.2075 28.8943 20.5858C32.0781 18.9352 35.9155 21.2557 35.9155 24.8603C35.9156 28.0806 33.3891 37.9578 31.1044 37.9578Z" fill="#D5D1FB"/>
<path d="M23.8535 22.4388C21.967 22.4388 20.4321 23.9736 20.4321 25.8602C20.4321 26.1481 20.6654 26.3813 20.9532 26.3813C21.241 26.3813 21.4744 26.1481 21.4744 25.8602C21.4744 24.5484 22.5416 23.4812 23.8535 23.4812C24.1413 23.4812 24.3747 23.2479 24.3747 22.96C24.3747 22.6721 24.1413 22.4388 23.8535 22.4388Z" fill="#D5D1FB"/>
<path d="M28.4145 19.6604C27.5156 20.1264 26.4422 20.1263 25.5434 19.6604C21.6595 17.6469 17 20.4836 17 24.8602C17 27.6145 19.2834 39 22.8535 39C24.1058 39 25.2455 37.7225 26.3378 35.0944C26.5739 34.5263 27.384 34.5261 27.6202 35.0944C28.7125 37.7225 29.8521 39 31.1045 39C34.6396 39 36.958 27.7021 36.958 24.8602C36.9579 20.4851 32.3 17.646 28.4145 19.6604ZM31.1044 37.9578C30.3637 37.9578 29.4446 36.7684 28.5827 34.6944C27.9904 33.2694 25.9678 33.2687 25.3753 34.6944C24.5134 36.7683 23.5942 37.9578 22.8535 37.9578C20.5705 37.9578 18.0423 28.0945 18.0423 24.8603C18.0423 21.2591 21.8766 18.9336 25.0637 20.5858C26.263 21.2075 27.695 21.2075 28.8943 20.5858C32.0781 18.9352 35.9155 21.2557 35.9155 24.8603C35.9156 28.0806 33.3891 37.9578 31.1044 37.9578Z" stroke="#D5D1FB"/>
<path d="M23.8535 22.4388C21.967 22.4388 20.4321 23.9736 20.4321 25.8602C20.4321 26.1481 20.6654 26.3813 20.9532 26.3813C21.241 26.3813 21.4744 26.1481 21.4744 25.8602C21.4744 24.5484 22.5416 23.4812 23.8535 23.4812C24.1413 23.4812 24.3747 23.2479 24.3747 22.96C24.3747 22.6721 24.1413 22.4388 23.8535 22.4388Z" stroke="#D5D1FB"/>
</svg>
